<?xml version="1.0" encoding="utf-8"?>
<!-- Generator: Adobe Illustrator 25.3.1, SVG Export Plug-In . SVG Version: 6.00 Build 0)  -->
<svg version="1.1" id="Layer_1" xmlns="http://www.w3.org/2000/svg" xmlns:xlink="http://www.w3.org/1999/xlink" x="0px" y="0px"
	 viewBox="0 0 23.6 23.6" style="enable-background:new 0 0 23.6 23.6;" xml:space="preserve">
<style type="text/css">
	.st0{fill:#FFFFFF;}
</style>
<g>
	<g>
		<path class="st0" d="M21.8,6.3h-20c-0.5,0-1-0.5-1-1v-1c0-0.6,0.5-1,1-1h20c0.6,0,1,0.5,1,1v1C22.8,5.9,22.4,6.3,21.8,6.3z"/>
	</g>
	<g>
		<path class="st0" d="M21.8,13.3h-20c-0.5,0-1-0.4-1-1v-1c0-0.6,0.5-1,1-1h20c0.6,0,1,0.4,1,1v1C22.8,12.9,22.4,13.3,21.8,13.3z"/>
	</g>
	<g>
		<path class="st0" d="M21.8,20.3h-20c-0.5,0-1-0.4-1-1v-1c0-0.5,0.5-1,1-1h20c0.6,0,1,0.5,1,1v1C22.8,19.9,22.4,20.3,21.8,20.3z"/>
	</g>
</g>
</svg>
