<?xml version="1.0" encoding="utf-8"?>
<!-- Generator: Adobe Illustrator 25.3.1, SVG Export Plug-In . SVG Version: 6.00 Build 0)  -->
<svg version="1.1" id="spotify_x5F_icone" xmlns="http://www.w3.org/2000/svg" xmlns:xlink="http://www.w3.org/1999/xlink" x="0px"
	 y="0px" viewBox="0 0 512 512" style="enable-background:new 0 0 512 512;" xml:space="preserve">
<style type="text/css">
	.st0{fill:#181313;}
</style>
<path class="st0" d="M256,0C114.6,0,0,114.6,0,256c0,141.4,114.6,256,256,256c141.4,0,256-114.6,256-256C512,114.6,397.4,0,256,0
	C256,0,256,0,256,0z M373.4,369.2c-4.6,7.5-14.4,9.9-21.9,5.3c-60.1-36.7-135.8-45-224.9-24.7c-8.6,2-17.1-3.4-19.1-12
	c-2-8.6,3.4-17.1,12-19.1c97.5-22.3,181.2-12.7,248.6,28.6C375.6,351.9,378,361.7,373.4,369.2z M404.7,299.5
	c-5.8,9.4-18.1,12.4-27.5,6.6c-68.8-42.3-173.7-54.6-255.1-29.8c-10.6,3.2-21.7-2.8-24.9-13.3c-3.2-10.6,2.8-21.7,13.3-24.9
	c93-28.2,208.6-14.5,287.6,34C407.5,277.9,410.5,290.1,404.7,299.5L404.7,299.5z M407.4,226.9c-82.5-49-218.6-53.5-297.4-29.6
	c-12.6,3.8-26-3.3-29.9-16c-3.8-12.7,3.3-26,16-29.9c90.4-27.5,240.8-22.1,335.7,34.2c11.4,6.8,15.1,21.4,8.4,32.8
	C433.5,229.9,418.8,233.7,407.4,226.9L407.4,226.9z"/>
</svg>
